<svg xmlns="http://www.w3.org/2000/svg" width="33.824" height="34.396" viewBox="0 0 33.824 34.396">
  <g id="그룹_567" data-name="그룹 567" transform="translate(24033.865 22513.586)">
    <path id="Icon_awesome-plus" data-name="Icon awesome-plus" d="M12.98,7.742H8.487V3.248a1,1,0,0,0-1-1h-1a1,1,0,0,0-1,1V7.742H1a1,1,0,0,0-1,1v1a1,1,0,0,0,1,1H5.492V15.23a1,1,0,0,0,1,1h1a1,1,0,0,0,1-1V10.737H12.98a1,1,0,0,0,1-1v-1A1,1,0,0,0,12.98,7.742Z" transform="translate(-24014.02 -22515.836)" fill="#696cff"/>
    <path id="Icon_metro-link" data-name="Icon metro-link" d="M15.833,21.081a1.561,1.561,0,0,1-1.108-.459,7.359,7.359,0,0,1,0-10.4l5.784-5.784a7.351,7.351,0,1,1,10.4,10.4l-2.644,2.644a1.567,1.567,0,0,1-2.215-2.215l2.644-2.644a4.218,4.218,0,0,0-5.965-5.964l-5.784,5.784a4.222,4.222,0,0,0,0,5.965,1.567,1.567,0,0,1-1.108,2.674Zm-5.55,11.334a7.351,7.351,0,0,1-5.2-12.548l2.644-2.644a1.567,1.567,0,0,1,2.215,2.215L7.3,22.082a4.218,4.218,0,0,0,5.965,5.964l5.784-5.784a4.223,4.223,0,0,0,0-5.965,1.567,1.567,0,1,1,2.215-2.215,7.359,7.359,0,0,1,0,10.4l-5.784,5.784a7.3,7.3,0,0,1-5.2,2.153Z" transform="translate(-24001.449 -22512.244) rotate(90)" fill="#696cff"/>
  </g>
</svg>
