<svg xmlns="http://www.w3.org/2000/svg" width="32.797" height="32.797" viewBox="0 0 32.797 32.797">
  <g id="그룹_572" data-name="그룹 572" transform="translate(23960.43 22564.473)">
    <path id="Icon_awesome-pen-nib" data-name="Icon awesome-pen-nib" d="M8.75,8.89a4.1,4.1,0,0,0-2.774,2.649L0,29.466l.941.941,9.615-9.615a3.1,3.1,0,1,1,1.449,1.449L2.39,31.856l.941.941,17.927-5.976a4.1,4.1,0,0,0,2.649-2.774l2.741-9.7-8.2-8.2ZM31.9,4.751,28.046.9A3.076,3.076,0,0,0,23.7.9L20.073,4.523l8.2,8.2L31.9,9.1a3.076,3.076,0,0,0,0-4.35Z" transform="translate(-23960.43 -22564.473)" fill="#ea6f59"/>
    <path id="Icon_awesome-plus" data-name="Icon awesome-plus" d="M12.98,7.742H1a1,1,0,0,0-1,1v1a1,1,0,0,0,1,1H12.98a1,1,0,0,0,1-1v-1A1,1,0,0,0,12.98,7.742Z" transform="translate(-23960.43 -22572.215)" fill="#ea6f59"/>
  </g>
</svg>
