<svg xmlns="http://www.w3.org/2000/svg" width="27" height="27" viewBox="0 0 27 27">
  <g id="그룹_570" data-name="그룹 570" transform="translate(24293.031 22441.801)">
    <path id="Icon_ionic-md-checkbox-outline" data-name="Icon ionic-md-checkbox-outline" d="M28.5,28.5H7.5V7.5h15v-3H7.5a3.009,3.009,0,0,0-3,3v21a3.009,3.009,0,0,0,3,3h21a3.009,3.009,0,0,0,3-3v-12h-3Z" transform="translate(-24261.531 -22410.301) rotate(180)" fill="#696cfa"/>
    <path id="Icon_map-search" data-name="Icon map-search" d="M13.676,11.451a6.613,6.613,0,1,0-2.226,2.224l6.682,6.779,2.225-2.226Zm-5.638.669a4.079,4.079,0,1,1,4.081-4.077A4.086,4.086,0,0,1,8.038,12.12Z" transform="translate(-24271.438 -22436.883) rotate(90)" fill="#696cfa"/>
  </g>
</svg>
