<svg id="그룹_560" data-name="그룹 560" xmlns="http://www.w3.org/2000/svg" xmlns:xlink="http://www.w3.org/1999/xlink" width="80.77" height="94.709" viewBox="0 0 80.77 94.709">
  <defs>
    <clipPath id="clip-path">
      <rect id="사각형_269" data-name="사각형 269" width="80.769" height="94.709" transform="translate(0 0)" fill="none"/>
    </clipPath>
  </defs>
  <g id="그룹_559" data-name="그룹 559" clip-path="url(#clip-path)">
    <path id="패스_484" data-name="패스 484" d="M79.885,43.854a39.5,39.5,0,1,0-39.5,39.5,39.5,39.5,0,0,0,39.5-39.5" fill="#efefef"/>
    <path id="패스_485" data-name="패스 485" d="M64.848,84.571V72.7a26.522,26.522,0,0,0,8.236-19.23V43.021a26.608,26.608,0,0,0-53.215,0v5.554L11.16,60.6h8.709v7.049A12.432,12.432,0,0,0,32.3,80.08h2.776v4.491" fill="#fff"/>
    <path id="패스_486" data-name="패스 486" d="M64.848,86.571a2,2,0,0,1-2-2V72.7a2,2,0,0,1,.618-1.446,24.388,24.388,0,0,0,7.618-17.784V43.021a24.608,24.608,0,0,0-49.215,0v5.554a2,2,0,0,1-.379,1.173L15.078,58.6h4.791a2,2,0,0,1,2,2v7.049A10.443,10.443,0,0,0,32.3,78.08h2.776a2,2,0,0,1,2,2v4.491a2,2,0,0,1-4,0V82.08H32.3a14.447,14.447,0,0,1-14.43-14.432V62.6H11.16a2,2,0,0,1-1.621-3.173l8.33-11.5v-4.9a28.608,28.608,0,0,1,57.215,0V53.472A28.337,28.337,0,0,1,66.848,73.54V84.571a2,2,0,0,1-2,2" fill="#696666"/>
    <path id="패스_487" data-name="패스 487" d="M44.576,22.049H19.214a11.529,11.529,0,1,0,0,23.058H33.08c3.976,5.579,8.269,6.917,8.269,6.917V45.107h3.227a11.529,11.529,0,1,0,0-23.058" fill="#696cff"/>
    <path id="패스_488" data-name="패스 488" d="M41.349,54.024a2.022,2.022,0,0,1-.595-.091c-.192-.06-4.538-1.463-8.68-6.826H19.214a13.529,13.529,0,0,1,0-27.058H44.576a13.529,13.529,0,1,1,0,27.058H43.349v4.917a2,2,0,0,1-2,2M19.214,24.049a9.529,9.529,0,0,0,0,19.058H33.08a2,2,0,0,1,1.629.838,19.856,19.856,0,0,0,4.64,4.727V45.107a2,2,0,0,1,2-2h3.227a9.529,9.529,0,1,0,0-19.058Z" fill="#696cff"/>
    <path id="패스_489" data-name="패스 489" d="M22.9,34.039a2.882,2.882,0,1,0-2.882,2.883A2.882,2.882,0,0,0,22.9,34.039" fill="#fff"/>
    <path id="패스_490" data-name="패스 490" d="M19.312,37.5a4.174,4.174,0,1,1,4.173-4.174A4.179,4.179,0,0,1,19.312,37.5m0-4.929a.755.755,0,1,0,.754.755.755.755,0,0,0-.754-.755" transform="translate(0.709 0.709)" fill="#fff"/>
    <path id="패스_491" data-name="패스 491" d="M34.777,34.039a2.882,2.882,0,1,0-2.883,2.883,2.883,2.883,0,0,0,2.883-2.883" fill="#fff"/>
    <path id="패스_492" data-name="패스 492" d="M31.186,37.5A4.174,4.174,0,1,1,35.36,33.33,4.178,4.178,0,0,1,31.186,37.5m0-4.929a.755.755,0,1,0,.755.755.755.755,0,0,0-.755-.755" transform="translate(0.709 0.709)" fill="#fff"/>
    <path id="패스_493" data-name="패스 493" d="M46.651,34.039a2.882,2.882,0,1,0-2.882,2.883,2.882,2.882,0,0,0,2.882-2.883" fill="#fff"/>
    <path id="패스_494" data-name="패스 494" d="M43.061,37.5a4.174,4.174,0,1,1,4.173-4.174A4.179,4.179,0,0,1,43.061,37.5m0-4.929a.755.755,0,1,0,.754.755.756.756,0,0,0-.754-.755" transform="translate(0.709 0.709)" fill="#fff"/>
  </g>
</svg>
