<svg id="그룹_558" data-name="그룹 558" xmlns="http://www.w3.org/2000/svg" xmlns:xlink="http://www.w3.org/1999/xlink" width="90.742" height="90.742" viewBox="0 0 90.742 90.742">
  <defs>
    <clipPath id="clip-path">
      <rect id="사각형_268" data-name="사각형 268" width="90.742" height="90.742" fill="none"/>
    </clipPath>
  </defs>
  <g id="그룹_557" data-name="그룹 557" clip-path="url(#clip-path)">
    <path id="패스_467" data-name="패스 467" d="M84.772,45.644A39.128,39.128,0,1,0,45.645,84.773,39.127,39.127,0,0,0,84.772,45.644" transform="translate(-0.273 -0.273)" fill="#efefef"/>
    <line id="선_36" data-name="선 36" y2="69.941" transform="translate(56.252 10.401)" fill="#fff"/>
    <path id="패스_468" data-name="패스 468" d="M58.627,82.629a1.916,1.916,0,0,1-1.916-1.916V10.771a1.916,1.916,0,1,1,3.832,0V80.713a1.916,1.916,0,0,1-1.916,1.916" transform="translate(-2.375 -0.371)" fill="#696666"/>
    <line id="선_37" data-name="선 37" y2="86.91" transform="translate(45.372 1.916)" fill="#fff"/>
    <path id="패스_469" data-name="패스 469" d="M47.271,90.742a1.916,1.916,0,0,1-1.916-1.916V1.916a1.916,1.916,0,1,1,3.832,0v86.91a1.916,1.916,0,0,1-1.916,1.916" transform="translate(-1.9)" fill="#696666"/>
    <line id="선_38" data-name="선 38" y2="69.941" transform="translate(34.492 10.401)" fill="#fff"/>
    <path id="패스_470" data-name="패스 470" d="M35.916,82.629A1.916,1.916,0,0,1,34,80.713V10.771a1.916,1.916,0,1,1,3.832,0V80.713a1.916,1.916,0,0,1-1.916,1.916" transform="translate(-1.424 -0.371)" fill="#696666"/>
    <line id="선_39" data-name="선 39" x2="69.942" transform="translate(10.401 34.491)" fill="#fff"/>
    <path id="패스_471" data-name="패스 471" d="M80.714,37.831H10.771a1.916,1.916,0,1,1,0-3.832H80.714a1.916,1.916,0,1,1,0,3.832" transform="translate(-0.371 -1.424)" fill="#696666"/>
    <line id="선_40" data-name="선 40" x2="86.91" transform="translate(1.916 45.371)" fill="#fff"/>
    <path id="패스_472" data-name="패스 472" d="M88.826,49.186H1.916a1.916,1.916,0,1,1,0-3.832h86.91a1.916,1.916,0,1,1,0,3.832" transform="translate(0 -1.9)" fill="#696666"/>
    <line id="선_41" data-name="선 41" x2="69.942" transform="translate(10.401 56.251)" fill="#fff"/>
    <path id="패스_473" data-name="패스 473" d="M80.714,60.542H10.771a1.916,1.916,0,1,1,0-3.832H80.714a1.916,1.916,0,1,1,0,3.832" transform="translate(-0.371 -2.375)" fill="#696666"/>
    <path id="사각형_266" data-name="사각형 266" d="M8.391,0H43.417a8.39,8.39,0,0,1,8.39,8.39V43.416a8.392,8.392,0,0,1-8.392,8.392H8.392A8.392,8.392,0,0,1,0,43.416V8.391A8.391,8.391,0,0,1,8.391,0Z" transform="translate(19.468 19.467)" fill="#fff"/>
    <path id="패스_474" data-name="패스 474" d="M64,73.958H28.274A9.967,9.967,0,0,1,18.318,64V28.274a9.967,9.967,0,0,1,9.956-9.956H64a9.967,9.967,0,0,1,9.956,9.956V64A9.967,9.967,0,0,1,64,73.958M28.274,22.15a6.131,6.131,0,0,0-6.123,6.123V64a6.131,6.131,0,0,0,6.123,6.123H64A6.131,6.131,0,0,0,70.126,64V28.274A6.131,6.131,0,0,0,64,22.15Z" transform="translate(-0.767 -0.767)" fill="#696666"/>
    <rect id="사각형_267" data-name="사각형 267" width="28.755" height="28.755" transform="translate(30.994 30.993)" fill="#696cff"/>
    <path id="패스_475" data-name="패스 475" d="M61.02,62.935H32.266a1.916,1.916,0,0,1-1.916-1.916V32.265a1.916,1.916,0,0,1,1.916-1.916H61.02a1.916,1.916,0,0,1,1.916,1.916V61.019a1.916,1.916,0,0,1-1.916,1.916M34.182,59.1H59.1V34.181H34.182Z" transform="translate(-1.271 -1.271)" fill="#696cff"/>
    <path id="패스_476" data-name="패스 476" d="M61.886,7.881a3.108,3.108,0,1,0-3.108,3.108,3.109,3.109,0,0,0,3.108-3.108" transform="translate(-2.332 -0.2)" fill="#fff"/>
    <path id="패스_477" data-name="패스 477" d="M58.694,12.821A5.025,5.025,0,1,1,63.719,7.8a5.029,5.029,0,0,1-5.024,5.023m0-6.217A1.192,1.192,0,1,0,59.886,7.8,1.194,1.194,0,0,0,58.694,6.6" transform="translate(-2.248 -0.116)" fill="#696666"/>
    <path id="패스_478" data-name="패스 478" d="M38.769,86.557a3.108,3.108,0,1,0-3.108,3.108,3.109,3.109,0,0,0,3.108-3.108" transform="translate(-1.363 -3.495)" fill="#fff"/>
    <path id="패스_479" data-name="패스 479" d="M35.577,91.5A5.025,5.025,0,1,1,40.6,86.473,5.029,5.029,0,0,1,35.577,91.5m0-6.217a1.192,1.192,0,1,0,1.192,1.193,1.194,1.194,0,0,0-1.192-1.193" transform="translate(-1.28 -3.411)" fill="#696666"/>
    <path id="패스_480" data-name="패스 480" d="M7.881,32.552a3.109,3.109,0,1,0,3.108,3.109,3.109,3.109,0,0,0-3.108-3.109" transform="translate(-0.2 -1.363)" fill="#fff"/>
    <path id="패스_481" data-name="패스 481" d="M7.8,40.6a5.025,5.025,0,1,1,5.024-5.024A5.03,5.03,0,0,1,7.8,40.6m0-6.217a1.192,1.192,0,1,0,1.192,1.193A1.2,1.2,0,0,0,7.8,34.384" transform="translate(-0.116 -1.28)" fill="#696666"/>
    <path id="패스_482" data-name="패스 482" d="M86.557,55.669a3.108,3.108,0,1,0,3.108,3.108,3.108,3.108,0,0,0-3.108-3.108" transform="translate(-3.495 -2.332)" fill="#fff"/>
    <path id="패스_483" data-name="패스 483" d="M86.473,63.718A5.024,5.024,0,1,1,91.5,58.693a5.029,5.029,0,0,1-5.024,5.024m0-6.216a1.192,1.192,0,1,0,1.192,1.192A1.193,1.193,0,0,0,86.473,57.5" transform="translate(-3.411 -2.248)" fill="#696666"/>
  </g>
</svg>
