<svg xmlns="http://www.w3.org/2000/svg" width="31.5" height="36" viewBox="0 0 31.5 36">
  <path id="Icon_awesome-copy" data-name="Icon awesome-copy" d="M22.5,31.5v2.813A1.687,1.687,0,0,1,20.813,36H1.688A1.687,1.687,0,0,1,0,34.313V8.438A1.687,1.687,0,0,1,1.688,6.75H6.75V27.563A3.942,3.942,0,0,0,10.688,31.5Zm0-24.187V0H10.688A1.687,1.687,0,0,0,9,1.688V27.563a1.687,1.687,0,0,0,1.688,1.688H29.813A1.687,1.687,0,0,0,31.5,27.563V9H24.188A1.692,1.692,0,0,1,22.5,7.313Zm8.506-2.182L26.369.494A1.688,1.688,0,0,0,25.176,0H24.75V6.75H31.5V6.324a1.688,1.688,0,0,0-.494-1.193Z" fill="#696cfa"/>
</svg>
