<?xml version="1.0" encoding="utf-8"?>
<!-- Generator: Adobe Illustrator 28.0.0, SVG Export Plug-In . SVG Version: 6.00 Build 0)  -->
<svg version="1.1" id="그룹_560" xmlns="http://www.w3.org/2000/svg" xmlns:xlink="http://www.w3.org/1999/xlink" x="0px" y="0px"
	 viewBox="0 0 80.8 94.7" style="enable-background:new 0 0 80.8 94.7;" xml:space="preserve">
<style type="text/css">
	.st0{clip-path:url(#SVGID_00000031184520968350086570000006823121295065142460_);}
	.st1{fill:#EFEFEF;}
	.st2{fill:#FFFFFF;}
	.st3{fill:#696666;}
	.st4{fill:#ADADAF;}
</style>
<g>
	<defs>
		<rect id="SVGID_1_" width="80.8" height="94.7"/>
	</defs>
	<clipPath id="SVGID_00000026143979645396613650000015701242334641312157_">
		<use xlink:href="#SVGID_1_"  style="overflow:visible;"/>
	</clipPath>
	<g id="그룹_559" style="clip-path:url(#SVGID_00000026143979645396613650000015701242334641312157_);">
		<path id="패스_484" class="st1" d="M79.9,43.9C79.9,22,62.2,4.4,40.4,4.4S0.9,22,0.9,43.9s17.7,39.5,39.5,39.5
			S79.9,65.7,79.9,43.9"/>
		<path id="패스_485" class="st2" d="M64.8,84.6V72.7c5.3-5,8.2-12,8.2-19.2V43C73,28.3,61,16.5,46.3,16.6
			C31.7,16.7,20,28.5,19.9,43v5.6l-8.7,12h8.7v7c0,6.9,5.6,12.4,12.4,12.4h2.8v4.5"/>
		<path id="패스_486" class="st3" d="M64.8,86.6c-1.1,0-2-0.9-2-2V72.7c0-0.5,0.2-1.1,0.6-1.4c4.9-4.6,7.6-11.1,7.6-17.8V43
			C71,29.4,59.9,18.5,46.3,18.6C32.9,18.7,22,29.6,21.9,43v5.6c0,0.4-0.1,0.8-0.4,1.2l-6.4,8.9h4.8c1.1,0,2,0.9,2,2v7
			c0,5.8,4.7,10.4,10.4,10.4h2.8c1.1,0,2,0.9,2,2v4.5c0,1.1-0.9,2-2,2s-2-0.9-2-2v-2.5h-0.8c-8,0-14.4-6.5-14.4-14.4v-5h-6.7
			c-1.1,0-2-0.9-2-2c0-0.4,0.1-0.8,0.4-1.2l8.3-11.5V43c0.1-15.8,13-28.5,28.8-28.4C62.3,14.7,75,27.4,75.1,43v10.4
			c0,7.5-2.9,14.7-8.2,20.1v11C66.8,85.7,66,86.6,64.8,86.6"/>
		<path id="패스_487" class="st4" d="M44.6,22H19.2c-6.4,0-11.5,5.2-11.5,11.5s5.2,11.5,11.5,11.5h13.9c4,5.6,8.3,6.9,8.3,6.9
			v-6.9h3.2c6.4,0,11.5-5.2,11.5-11.5S50.9,22,44.6,22"/>
		<path id="패스_488" class="st4" d="M41.3,54c-0.2,0-0.4,0-0.6-0.1c-0.2-0.1-4.5-1.5-8.7-6.8H19.2c-7.5,0-13.5-6.1-13.5-13.5
			S11.7,20,19.2,20h25.4c7.5,0,13.5,6.1,13.5,13.5S52,47.1,44.6,47.1h-1.2V52C43.3,53.1,42.5,54,41.3,54 M19.2,24
			c-5.3,0-9.5,4.3-9.5,9.5s4.3,9.5,9.5,9.5h13.9c0.6,0,1.3,0.3,1.6,0.8c1.3,1.8,2.8,3.4,4.6,4.7v-3.6c0-1.1,0.9-2,2-2h3.2
			c5.3,0,9.5-4.3,9.5-9.5S49.8,24,44.6,24c0,0,0,0,0,0L19.2,24z"/>
		<path id="패스_489" class="st2" d="M22.9,34c0-1.6-1.3-2.9-2.9-2.9c-1.6,0-2.9,1.3-2.9,2.9c0,1.6,1.3,2.9,2.9,2.9
			C21.6,36.9,22.9,35.6,22.9,34C22.9,34,22.9,34,22.9,34"/>
		<path id="패스_490" class="st2" d="M20,38.2c-2.3,0-4.2-1.9-4.2-4.2s1.9-4.2,4.2-4.2c2.3,0,4.2,1.9,4.2,4.2c0,0,0,0,0,0
			C24.2,36.3,22.3,38.2,20,38.2 M20,33.3c-0.4,0-0.8,0.3-0.8,0.8c0,0.4,0.3,0.8,0.8,0.8s0.8-0.3,0.8-0.8c0,0,0,0,0,0
			C20.8,33.6,20.4,33.3,20,33.3"/>
		<path id="패스_491" class="st2" d="M34.8,34c0-1.6-1.3-2.9-2.9-2.9c-1.6,0-2.9,1.3-2.9,2.9c0,1.6,1.3,2.9,2.9,2.9
			C33.5,36.9,34.8,35.6,34.8,34"/>
		<path id="패스_492" class="st2" d="M31.9,38.2c-2.3,0-4.2-1.9-4.2-4.2s1.9-4.2,4.2-4.2s4.2,1.9,4.2,4.2c0,0,0,0,0,0
			C36.1,36.3,34.2,38.2,31.9,38.2 M31.9,33.3c-0.4,0-0.8,0.3-0.8,0.8c0,0.4,0.3,0.8,0.8,0.8c0.4,0,0.8-0.3,0.8-0.8
			S32.3,33.3,31.9,33.3L31.9,33.3"/>
		<path id="패스_493" class="st2" d="M46.7,34c0-1.6-1.3-2.9-2.9-2.9c-1.6,0-2.9,1.3-2.9,2.9c0,1.6,1.3,2.9,2.9,2.9
			C45.4,36.9,46.7,35.6,46.7,34C46.7,34,46.7,34,46.7,34"/>
		<path id="패스_494" class="st2" d="M43.8,38.2c-2.3,0-4.2-1.9-4.2-4.2s1.9-4.2,4.2-4.2c2.3,0,4.2,1.9,4.2,4.2c0,0,0,0,0,0
			C47.9,36.3,46.1,38.2,43.8,38.2 M43.8,33.3c-0.4,0-0.8,0.3-0.8,0.8c0,0.4,0.3,0.8,0.8,0.8c0.4,0,0.8-0.3,0.8-0.8c0,0,0,0,0,0
			C44.5,33.6,44.2,33.3,43.8,33.3"/>
	</g>
</g>
</svg>
