<svg xmlns="http://www.w3.org/2000/svg" width="354.359" height="85.557" viewBox="0 0 354.359 85.557">
  <g id="그룹_565" data-name="그룹 565" transform="translate(-22.748 -58.502)">
    <g id="그룹_566" data-name="그룹 566">
      <path id="패스_504" data-name="패스 504" d="M43.695,141.091H22.748l37.094-76.7H84.717l-5.673,43.7,27.493-43.7h24.439l-21.384,76.477H89.954l13.528-44.156L74.243,140.864H57.66l4.364-42.791Z" fill="#696cff"/>
      <path id="패스_505" data-name="패스 505" d="M196.872,85.327H191.2l-4.364,10.925h4.8l-11.783,31.865s-9.6,23.217,28.8,11.381l1.746-9.1s-16.583,5.463-7.856-12.29l7.856-21.4H220l6.983-11.835h-10.91l6.11-15.022H202.545Z" fill="#696cff"/>
      <path id="패스_506" data-name="패스 506" d="M253.6,84.872h-17.02l-21.82,55.992h20.074l12.656-34.6s3.054-10.015,15.71-7.283l9.6-14.567s-8.292-3.187-17.893,3.641c0,0-3.491,3.187-1.309-3.186" fill="#696cff"/>
      <path id="패스_507" data-name="패스 507" d="M295.935,84.872H277.17l-21.384,56.447h19.2Z" fill="#696cff"/>
      <path id="패스_508" data-name="패스 508" d="M336.085,64.387H310.773l8.292,36.417-40.149,40.515,25.311-.456,19.2-20.94,2.618,20.94h24l-8.292-40.969,35.349-35.052H352.668L337.83,82.6Z" fill="#696cff"/>
      <path id="패스_509" data-name="패스 509" d="M175.925,118.558c17.456-37.783-13.092-35.051-13.092-35.051-33.6,2.731-40.586,36.872-40.586,36.872-3.491,41.425,47.459,15.9,47.459,15.9l-2.946-12.259c-30.112,16.843-24.875-5.463-24.875-5.463Zm-21.384-21.85s12.655-3.642,6.982,11.38h-14.4s.873-8.193,7.419-11.38" fill="#696cff"/>
      <path id="패스_510" data-name="패스 510" d="M298.134,76.229c-5.266,4.439-11.977,4.886-14.989,1s-1.188-10.64,4.077-15.08,11.978-4.885,14.991-1,1.187,10.64-4.079,15.079" fill="#696cff"/>
    </g>
  </g>
</svg>
